<svg width="10" height="10" viewBox="0 0 10 10" fill="none" xmlns="http://www.w3.org/2000/svg">
<path d="M4.3 5.9L3.225 4.825C3.13333 4.73333 3.01667 4.6875 2.875 4.6875C2.73333 4.6875 2.61667 4.73333 2.525 4.825C2.43333 4.91667 2.3875 5.03333 2.3875 5.175C2.3875 5.31667 2.43333 5.43333 2.525 5.525L3.95 6.95C4.05 7.05 4.16667 7.1 4.3 7.1C4.43333 7.1 4.55 7.05 4.65 6.95L7.475 4.125C7.56667 4.03333 7.6125 3.91667 7.6125 3.775C7.6125 3.63333 7.56667 3.51667 7.475 3.425C7.38333 3.33333 7.26667 3.2875 7.125 3.2875C6.98333 3.2875 6.86667 3.33333 6.775 3.425L4.3 5.9ZM5 10C4.30833 10 3.65833 9.86875 3.05 9.60625C2.44167 9.34375 1.9125 8.9875 1.4625 8.5375C1.0125 8.0875 0.65625 7.55833 0.39375 6.95C0.13125 6.34167 0 5.69167 0 5C0 4.30833 0.13125 3.65833 0.39375 3.05C0.65625 2.44167 1.0125 1.9125 1.4625 1.4625C1.9125 1.0125 2.44167 0.65625 3.05 0.39375C3.65833 0.13125 4.30833 0 5 0C5.69167 0 6.34167 0.13125 6.95 0.39375C7.55833 0.65625 8.0875 1.0125 8.5375 1.4625C8.9875 1.9125 9.34375 2.44167 9.60625 3.05C9.86875 3.65833 10 4.30833 10 5C10 5.69167 9.86875 6.34167 9.60625 6.95C9.34375 7.55833 8.9875 8.0875 8.5375 8.5375C8.0875 8.9875 7.55833 9.34375 6.95 9.60625C6.34167 9.86875 5.69167 10 5 10Z" fill="#00CF08"/>
</svg>
