<svg width="9" height="9" viewBox="0 0 9 9" fill="none" xmlns="http://www.w3.org/2000/svg">
<path d="M0.60256 8.98476C0.427614 9.02641 0.275577 8.98268 0.146449 8.85355C0.017322 8.72442 -0.0264147 8.57239 0.0152393 8.39744L0.515087 6.01067L2.98933 8.48491L0.60256 8.98476ZM2.98933 8.48491L0.515087 6.01067L6.23834 0.287412C6.42995 0.0958041 6.66738 0 6.95062 0C7.23387 0 7.4713 0.0958041 7.66291 0.287412L8.71259 1.33709C8.9042 1.5287 9 1.76613 9 2.04938C9 2.33262 8.9042 2.57005 8.71259 2.76166L2.98933 8.48491ZM6.95062 0.987199L1.7772 6.16062L2.83938 7.2228L8.0128 2.04938L6.95062 0.987199Z" fill="black"/>
</svg>
