<svg width="10" height="12" viewBox="0 0 10 12" fill="none" xmlns="http://www.w3.org/2000/svg">
<path d="M2.77778 6.66667C2.62037 6.66667 2.48843 6.61343 2.38194 6.50694C2.27546 6.40046 2.22222 6.26852 2.22222 6.11111C2.22222 5.9537 2.27546 5.82176 2.38194 5.71528C2.48843 5.6088 2.62037 5.55556 2.77778 5.55556C2.93519 5.55556 3.06713 5.6088 3.17361 5.71528C3.28009 5.82176 3.33333 5.9537 3.33333 6.11111C3.33333 6.26852 3.28009 6.40046 3.17361 6.50694C3.06713 6.61343 2.93519 6.66667 2.77778 6.66667ZM5 6.66667C4.84259 6.66667 4.71065 6.61343 4.60417 6.50694C4.49769 6.40046 4.44444 6.26852 4.44444 6.11111C4.44444 5.9537 4.49769 5.82176 4.60417 5.71528C4.71065 5.6088 4.84259 5.55556 5 5.55556C5.15741 5.55556 5.28935 5.6088 5.39583 5.71528C5.50232 5.82176 5.55556 5.9537 5.55556 6.11111C5.55556 6.26852 5.50232 6.40046 5.39583 6.50694C5.28935 6.61343 5.15741 6.66667 5 6.66667ZM7.22222 6.66667C7.06482 6.66667 6.93287 6.61343 6.82639 6.50694C6.71991 6.40046 6.66667 6.26852 6.66667 6.11111C6.66667 5.9537 6.71991 5.82176 6.82639 5.71528C6.93287 5.6088 7.06482 5.55556 7.22222 5.55556C7.37963 5.55556 7.51157 5.6088 7.61806 5.71528C7.72454 5.82176 7.77778 5.9537 7.77778 6.11111C7.77778 6.26852 7.72454 6.40046 7.61806 6.50694C7.51157 6.61343 7.37963 6.66667 7.22222 6.66667ZM1.11111 11.1111C0.805556 11.1111 0.543982 11.0023 0.326389 10.7847C0.108796 10.5671 0 10.3056 0 10V2.22222C0 1.91667 0.108796 1.65509 0.326389 1.4375C0.543982 1.21991 0.805556 1.11111 1.11111 1.11111H1.66667V0H2.77778V1.11111H7.22222V0H8.33333V1.11111H8.88889C9.19444 1.11111 9.45602 1.21991 9.67361 1.4375C9.8912 1.65509 10 1.91667 10 2.22222V10C10 10.3056 9.8912 10.5671 9.67361 10.7847C9.45602 11.0023 9.19444 11.1111 8.88889 11.1111H1.11111ZM1.11111 10H8.88889V4.44444H1.11111V10ZM1.11111 3.33333H8.88889V2.22222H1.11111V3.33333Z" fill="#494E7E"/>
</svg>
